<svg xmlns="http://www.w3.org/2000/svg" viewBox="0 0 40 40" fill="none">
  <rect width="40" height="40" rx="8" fill="#3B82F6"/>
  <path d="M12 16L20 12L28 16V28C28 28.5304 27.7893 29.0391 27.4142 29.4142C27.0391 29.7893 26.5304 30 26 30H14C13.4696 30 12.9609 29.7893 12.5858 29.4142C12.2107 29.0391 12 28.5304 12 28V16Z" stroke="white" stroke-width="2" stroke-linecap="round" stroke-linejoin="round"/>
  <path d="M16 26C16 24.9391 16.4214 23.9217 17.1716 23.1716C17.9217 22.4214 18.9391 22 20 22C21.0609 22 22.0783 22.4214 22.8284 23.1716C23.5786 23.9217 24 24.9391 24 26" stroke="white" stroke-width="2" stroke-linecap="round" stroke-linejoin="round"/>
</svg>